#!OML:ASF X:\für Bonn\!DataBase\2005_08_12_Daniel\c3d\Daniel.ASF
:FULLY-SPECIFIED
:DEGREES
206
root 2.07155 17.5092 18.2309 -3.58135 -344.435 363.106
lowerback 7.74307 -2.69706 -1.76043
upperback 0.777425 -3.86056 -3.34016
thorax -3.64834 -1.91073 -2.05388
lowerneck -2.87598 1.77231 -2.97292
upperneck 5.73201 2.8902 -6.00597
head 2.36273 1.21021 -1.32166
rclavicle -3.81263e-014 -1.35174e-014
rhumerus -50.1138 10.1038 -94.4878
rradius 108.646
rwrist -36.2407
rhand -3.84059 15.5082
rfingers 7.12502
rthumb 21.907 -13.2715
lclavicle -3.81263e-014 -1.35174e-014
lhumerus -38.3452 36.0487 65.3224
lradius 22.2137
lwrist -29.5571
lhand -11.0716 -5.45
lfingers 7.12502
lthumb 14.9515 23.9903
rfemur 0.532918 17.5573 12.7532
rtibia 23.7242
rfoot -20.2165 -0.72425
rtoes -16.6231
lfemur -7.87298 -20.1929 -21.9074
ltibia 31.6705
lfoot -19.0584 -1.98371
ltoes -9.24186
207
root 2.04637 17.5043 18.218 -3.61462 -344.137 363.051
lowerback 7.9159 -2.84932 -1.58237
upperback 0.856164 -4.04836 -3.26682
thorax -3.6749 -2.00579 -2.05009
lowerneck -2.83712 2.02666 -2.79039
upperneck 5.39646 3.23364 -6.60629
head 2.26988 1.38049 -1.53677
rclavicle -2.21707e-014 -1.59028e-014
rhumerus -52.4032 9.33204 -96.1117
rradius 107.264
rwrist -37.6525
rhand -3.56611 15.4408
rfingers 7.12502
rthumb 22.1706 -13.3079
lclavicle -2.21707e-014 -1.59028e-014
lhumerus -37.9597 35.3687 66.0696
lradius 22.6777
lwrist -28.5001
lhand -11.2202 -5.19045
lfingers 7.12502
lthumb 14.8083 24.2605
rfemur 0.566871 17.7172 12.7979
rtibia 23.6672
rfoot -20.1921 -0.263126
rtoes -16.575
lfemur -8.08237 -20.3672 -21.7502
ltibia 31.8545
lfoot -19.0515 -2.1412
ltoes -9.47182
208
root 2.02018 17.4996 18.2042 -3.64281 -343.837 363.011
lowerback 8.07119 -2.99835 -1.38514
upperback 0.937128 -4.22878 -3.19153
thorax -3.69088 -2.09746 -2.05598
lowerneck -2.73725 2.28926 -2.73992
upperneck 5.01994 3.58155 -7.13957
head 2.15169 1.55601 -1.70858
rclavicle -1.56667e-014 6.36111e-015
rhumerus -54.3172 8.2978 -97.4163
rradius 105.608
rwrist -38.9828
rhand -3.03718 15.4603
rfingers 7.12502
rthumb 22.6783 -13.2271
lclavicle -1.56667e-014 6.36111e-015
lhumerus -37.571 34.6742 66.8152
lradius 23.1262
lwrist -27.4195
lhand -11.3555 -4.95913
lfingers 7.12502
lthumb 14.678 24.5013
rfemur 0.586655 17.8113 12.8324
rtibia 23.625
rfoot -20.1951 0.125537
rtoes -16.5488
lfemur -8.29781 -20.5521 -21.611
ltibia 32.0439
lfoot -19.0344 -2.28646
ltoes -9.64884
209
root 1.99392 17.4946 18.1897 -3.68761 -343.536 362.943
lowerback 8.22663 -3.13889 -1.096
upperback 1.03482 -4.3894 -3.13853
thorax -3.69826 -2.18077 -2.13823
lowerneck -2.64386 2.5414 -2.74923
upperneck 4.64085 3.91168 -7.60985
head 2.03304 1.72465 -1.85109
rclavicle -5.31749e-015 -6.36111e-015
rhumerus -55.8358 7.02648 -98.4155
rradius 103.717
rwrist -40.2317
rhand -2.34617 15.5258
rfingers 7.12502
rthumb 23.3413 -13.079
lclavicle -5.31749e-015 -6.36111e-015
lhumerus -37.1449 33.9701 67.527
lradius 23.5604
lwrist -26.3947
lhand -11.4894 -4.73335
lfingers 7.12502
lthumb 14.549 24.7365
rfemur 0.602619 17.8475 12.9118
rtibia 23.6053
rfoot -20.2207 0.430381
rtoes -16.521
lfemur -8.51131 -20.6876 -21.4407
ltibia 32.2353
lfoot -19.0028 -2.4517
ltoes -9.89907
210
root 1.96387 17.4905 18.1736 -3.73676 -343.224 362.86
lowerback 8.40772 -3.26422 -0.785836
upperback 1.12364 -4.52815 -3.08878
thorax -3.73141 -2.25331 -2.23578
lowerneck -2.52633 2.78519 -2.79021
upperneck 4.2686 4.22578 -8.03404
head 1.91186 1.88767 -1.97485
rclavicle 3.55203e-014 -3.18055e-014
rhumerus -57.0752 5.60133 -99.0935
rradius 101.706
rwrist -41.3945
rhand -1.62621 15.6158
rfingers 7.12502
rthumb 24.0319 -12.8996
lclavicle 3.55203e-014 -3.18055e-014
lhumerus -36.7463 33.2577 68.2041
lradius 23.9937
lwrist -25.4511
lhand -11.6776 -4.55086
lfingers 7.12502
lthumb 14.3676 24.9319
rfemur 0.609118 17.7962 13.0345
rtibia 23.6118
rfoot -20.2308 0.648697
rtoes -16.4936
lfemur -8.74735 -20.7977 -21.2351
ltibia 32.4308
lfoot -18.9581 -2.66011
ltoes -10.0413
211
root 1.92909 17.4851 18.1571 -3.80386 -342.921 362.777
lowerback 8.61128 -3.37455 -0.516767
upperback 1.22851 -4.64905 -3.03156
thorax -3.75682 -2.31601 -2.30342
lowerneck -2.41514 3.0308 -2.83687
upperneck 3.88893 4.53973 -8.46464
head 1.79142 2.05207 -2.10091
rclavicle 1.91951e-014 -9.14409e-015
rhumerus -58.0693 4.1432 -99.4906
rradius 99.623
rwrist -42.5185
rhand -0.974612 15.6854
rfingers 7.12502
rthumb 24.6565 -12.7462
lclavicle 1.91951e-014 -9.14409e-015
lhumerus -36.3593 32.7489 68.7879
lradius 24.3941
lwrist -24.7196
lhand -11.7915 -4.43749
lfingers 7.12502
lthumb 14.2579 25.0531
rfemur 0.638941 17.7152 13.1966
rtibia 23.6522
rfoot -20.2794 0.772546
rtoes -16.4545
lfemur -8.97127 -20.8371 -21.0128
ltibia 32.6242
lfoot -18.9093 -2.92112
ltoes -10.2013
212
root 1.89101 17.4808 18.1396 -3.84585 -342.614 362.693
lowerback 8.81605 -3.46261 -0.250356
upperback 1.30845 -4.74095 -2.99029
thorax -3.80942 -2.36436 -2.38821
lowerneck -2.29871 3.26034 -2.81827
upperneck 3.57963 4.83277 -8.89015
head 1.69576 2.20579 -2.2387
rclavicle -4.53726e-014 -2.62396e-014
rhumerus -58.9821 2.6637 -99.7085
rradius 97.5621
rwrist -43.5086
rhand -0.570986 15.7406
rfingers 7.12502
rthumb 25.0434 -12.6376
lclavicle -4.53726e-014 -2.62396e-014
lhumerus -36.0417 32.2423 69.307
lradius 24.8166
lwrist -24.0729
lhand -11.888 -4.4814
lfingers 7.12502
lthumb 14.165 25.0157
rfemur 0.626563 17.5825 13.3755
rtibia 23.7142
rfoot -20.3193 0.807492
rtoes -16.4656
lfemur -9.2451 -20.8592 -20.764
ltibia 32.8154
lfoot -18.8467 -3.17761
ltoes -10.4188
213
root 1.85153 17.4765 18.1209 -3.9107 -342.305 362.596
lowerback 9.04367 -3.54409 -0.0112158
upperback 1.40776 -4.82428 -2.92817
thorax -3.85061 -2.4076 -2.4361
lowerneck -2.21703 3.50304 -2.73142
upperneck 3.28946 5.14593 -9.3794
head 1.61949 2.3687 -2.41009
rclavicle -3.94712e-014 -1.70955e-014
rhumerus -59.797 1.30895 -99.7733
rradius 95.5946
rwrist -44.439
rhand -0.482551 15.7091
rfingers 7.12502
rthumb 25.1281 -12.6573
lclavicle -3.94712e-014 -1.70955e-014
lhumerus -35.7371 31.8037 69.8343
lradius 25.2874
lwrist -23.4563
lhand -11.9105 -4.58323
lfingers 7.12502
lthumb 14.1432 24.9154
rfemur 0.610911 17.4412 13.5763
rtibia 23.7991
rfoot -20.3656 0.811101
rtoes -16.3264
lfemur -9.49982 -20.8385 -20.4968
ltibia 32.9984
lfoot -18.7919 -3.48192
ltoes -10.6954
214
root 1.81194 17.4724 18.1015 -3.97627 -341.993 362.497
lowerback 9.28131 -3.61917 0.198924
upperback 1.5057 -4.90056 -2.85932
thorax -3.89571 -2.44672 -2.46063
lowerneck -2.12897 3.74926 -2.57922
upperneck 3.02714 5.46391 -9.90336
head 1.55701 2.53418 -2.60634
rclavicle -8.64713e-015 -4.77083e-015
rhumerus -60.5002 0.0496138 -99.7249
rradius 93.6899
rwrist -45.3219
rhand -0.656857 15.6162
rfingers 7.12502
rthumb 24.9611 -12.7735
lclavicle -8.64713e-015 -4.77083e-015
lhumerus -35.46 31.3945 70.3574
lradius 25.7863
lwrist -22.8188
lhand -11.8869 -4.72204
lfingers 7.12502
lthumb 14.166 24.775
rfemur 0.578479 17.298 13.7845
rtibia 23.8917
rfoot -20.4076 0.762442
rtoes -16.167
lfemur -9.75338 -20.8368 -20.2272
ltibia 33.1681
lfoot -18.7025 -3.78506
ltoes -10.8006
215
root 1.77222 17.4691 18.0812 -4.03876 -341.694 362.385
lowerback 9.48616 -3.67019 0.403774
upperback 1.631 -4.94292 -2.78664
thorax -3.89173 -2.46852 -2.48541
lowerneck -2.13528 3.99094 -2.3529
upperneck 2.84905 5.78716 -10.4375
head 1.54426 2.69725 -2.81929
rclavicle -1.25483e-014 -3.97569e-015
rhumerus -61.1002 -1.23541 -99.555
rradius 91.9339
rwrist -46.1437
rhand -1.01919 15.3043
rfingers 7.12502
rthumb 24.6138 -13.1331
lclavicle -1.25483e-014 -3.97569e-015
lhumerus -35.1209 30.928 70.941
lradius 26.3172
lwrist -22.0925
lhand -11.8207 -4.91114
lfingers 7.12502
lthumb 14.2297 24.5814
rfemur 0.52227 17.1304 13.9986
rtibia 23.9898
rfoot -20.4166 0.720418
rtoes -15.8938
lfemur -10.0119 -20.845 -19.938
ltibia 33.322
lfoot -18.6258 -4.06794
ltoes -10.9262
216
root 1.73082 17.4661 18.0595 -4.11691 -341.395 362.285
lowerback 9.70949 -3.71268 0.58948
upperback 1.76928 -4.9749 -2.71837
thorax -3.88268 -2.48456 -2.50466
lowerneck -2.13508 4.24067 -2.11579
upperneck 2.68926 6.12255 -10.982
head 1.54065 2.86607 -3.03934
rclavicle 2.70596e-014 -4.37326e-015
rhumerus -61.5546 -2.48301 -99.3011
rradius 90.2333
rwrist -46.9238
rhand -1.52614 14.8638
rfingers 7.12502
rthumb 24.1278 -13.639
lclavicle 2.70596e-014 -4.37326e-015
lhumerus -34.7962 30.4017 71.5734
lradius 26.9178
lwrist -21.2616
lhand -11.7436 -5.13979
lfingers 7.12502
lthumb 14.3041 24.3475
rfemur 0.481958 16.9901 14.2213
rtibia 24.0851
rfoot -20.4382 0.613475
rtoes -15.63
lfemur -10.247 -20.8341 -19.6621
ltibia 33.4559
lfoot -18.5101 -4.36924
ltoes -11.0543
217
root 1.68851 17.4632 18.0373 -4.18486 -341.085 362.186
lowerback 9.90379 -3.75323 0.76806
upperback 1.91757 -5.00372 -2.6474
thorax -3.846 -2.49858 -2.51966
lowerneck -2.14152 4.49042 -1.91625
upperneck 2.53546 6.45832 -11.4865
head 1.53998 3.03516 -3.24047
rclavicle 2.83765e-014 -1.31198e-014
rhumerus -61.839 -3.6611 -98.9513
rradius 88.5363
rwrist -47.7797
rhand -2.01678 14.2246
rfingers 7.12502
rthumb 23.6573 -14.3398
lclavicle 2.83765e-014 -1.31198e-014
lhumerus -34.4948 29.7985 72.2618
lradius 27.6503
lwrist -20.2974
lhand -11.5813 -5.30858
lfingers 7.12502
lthumb 14.4604 24.1676
rfemur 0.423974 16.8548 14.447
rtibia 24.1835
rfoot -20.4524 0.458781
rtoes -15.3174
lfemur -10.4924 -20.8142 -19.3726
ltibia 33.5692
lfoot -18.3888 -4.69101
ltoes -11.2019
218
root 1.64467 17.462 18.014 -4.23936 -340.755 362.087
lowerback 10.095 -3.7807 0.935089
upperback 2.04985 -5.01606 -2.57463
thorax -3.82213 -2.50425 -2.52821
lowerneck -2.09545 4.74069 -1.68733
upperneck 2.41352 6.79464 -11.9923
head 1.54445 3.20538 -3.45005
rclavicle 3.92351e-014 -2.10712e-014
rhumerus -61.9647 -4.74757 -98.5081
rradius 86.8012
rwrist -48.6988
rhand -2.48416 13.5166
rfingers 7.12502
rthumb 23.209 -15.105
lclavicle 3.92351e-014 -2.10712e-014
lhumerus -34.2314 29.0412 73.0057
lradius 28.4376
lwrist -19.1893
lhand -11.4808 -5.44109
lfingers 7.12502
lthumb 14.5573 24.0281
rfemur 0.35627 16.734 14.6817
rtibia 24.2697
rfoot -20.4768 0.264251
rtoes -15.0452
lfemur -10.765 -20.7758 -19.0727
ltibia 33.6707
lfoot -18.258 -5.02145
ltoes -11.3622
219
root 1.60047 17.4609 17.9907 -4.29884 -340.427 362.017
lowerback 10.3061 -3.79861 1.06869
upperback 2.16728 -5.01932 -2.51063
thorax -3.82206 -2.50511 -2.52669
lowerneck -1.9925 4.98837 -1.46064
upperneck 2.30186 7.12474 -12.4704
head 1.54316 3.37472 -3.65273
rclavicle -1.51325e-014 -2.38542e-015
rhumerus -61.9104 -5.739 -97.9705
rradius 84.9026
rwrist -49.7298
rhand -2.74872 12.846
rfingers 7.12502
rthumb 22.9551 -15.8073
lclavicle -1.51325e-014 -2.38542e-015
lhumerus -34.0459 28.2816 73.7307
lradius 29.2841
lwrist -18.1257
lhand -11.3921 -5.55935
lfingers 7.12502
lthumb 14.6428 23.9037
rfemur 0.297123 16.53 14.8676
rtibia 24.3488
rfoot -20.4819 0.12638
rtoes -14.8192
lfemur -11.0166 -20.7589 -18.8102
ltibia 33.7612
lfoot -18.1206 -5.32591
ltoes -11.6021
